<svg width="323" height="83" viewBox="0 0 323 83" fill="none" xmlns="http://www.w3.org/2000/svg">
<path d="M23.4207 51.3418L8.99756 64.5317C10.5854 66.5172 12.3056 68.361 14.2905 70.0629L26.0672 54.0365C25.1409 53.1855 24.2147 52.3346 23.4207 51.3418Z" fill="#05C3DD"/>
<path d="M19.0545 36.875L0.132323 35.1731C0 36.3077 0 37.4423 0 38.4351C0 39.9952 0.132323 41.5553 0.264646 43.1154L19.1868 40.7043C19.0545 39.9952 19.0545 39.1442 19.0545 38.4351C19.0545 38.0096 19.0545 37.4423 19.0545 36.875Z" fill="#05C3DD"/>
<path d="M4.23484 19.9973C3.04393 22.4084 2.11767 24.8194 1.45605 27.3723L19.7166 33.0453C20.1136 31.7689 20.5106 30.6343 21.0398 29.4997L4.23484 19.9973Z" fill="#002855"/>
<path d="M26.1991 0.282471C23.8173 1.13343 21.5678 2.12622 19.4507 3.40266L28.581 21.131C29.6395 20.5637 30.8304 19.9964 31.889 19.5709L26.1991 0.282471Z" fill="#002855"/>
<path d="M54.9144 2.97836C52.7973 1.70192 50.4154 0.709133 48.0336 0L42.6084 19.5721C43.7993 19.9975 44.8579 20.423 45.9165 20.9903L54.9144 2.97836Z" fill="#002855"/>
<path d="M46.7099 68.5031C48.5624 67.794 50.2826 66.943 52.0028 65.9503L46.5776 55.5969C45.519 56.3061 44.4604 56.7315 43.2695 57.157L46.7099 68.5031Z" fill="#002855"/>
<path d="M7.80615 48.7878C8.46777 50.9152 9.2617 52.9007 10.3203 54.8863L21.4354 48.2205C20.9061 47.0859 20.3768 45.9512 19.9799 44.6748L7.80615 48.7878Z" fill="#002855"/>
<path d="M25.5389 23.4022L17.3349 12.907C15.747 14.3252 14.2915 15.8853 13.1006 17.5873L23.0248 26.0969C23.8187 25.1041 24.6127 24.2531 25.5389 23.4022Z" fill="#05C3DD"/>
<path d="M39.1674 18.8637L40.3583 3.9719C39.4321 3.83008 38.3735 3.83008 37.4472 3.83008C36.2563 3.83008 35.1977 3.83008 34.0068 3.9719L35.5947 18.8637C36.2563 18.8637 36.9179 18.7219 37.4472 18.7219C37.9765 18.7219 38.6381 18.7219 39.1674 18.8637Z" fill="#05C3DD"/>
<path d="M52.0034 50.6323C51.2095 51.6251 50.4155 52.6179 49.4893 53.4689L59.9428 66.3751C61.663 64.815 63.2508 62.9712 64.5741 61.1275L52.0034 50.6323Z" fill="#05C3DD"/>
<path d="M51.6054 25.9556L63.9115 15.035C62.4559 13.1912 60.868 11.4893 59.1478 9.9292L49.0913 23.2609C50.0176 23.97 50.9438 24.9628 51.6054 25.9556Z" fill="#05C3DD"/>
<path d="M29.1108 56.1631L23.2886 68.2183C25.1411 69.2111 26.9936 70.0621 28.9785 70.6294L32.4189 57.5814C31.3603 57.1559 30.3017 56.7304 29.1108 56.1631Z" fill="#002855"/>
<path d="M37.4468 58.291C37.0498 58.291 36.5205 58.291 36.1235 58.291L34.9326 75.3102C35.7266 75.3102 36.6528 75.452 37.4468 75.452C38.9023 75.452 40.2255 75.3102 41.6811 75.1684L39.6962 58.1492C39.0346 58.1492 38.2407 58.291 37.4468 58.291Z" fill="#05C3DD"/>
<path d="M101.888 44.9599C99.7712 47.7965 96.5955 49.6402 92.8904 49.6402C86.6713 49.6402 81.5107 44.2508 81.5107 37.4431C81.5107 30.7773 86.5389 25.246 92.8904 25.246C96.3308 25.246 99.5066 26.9479 101.624 29.6426L107.181 24.6787C103.741 20.2821 98.7126 17.4456 92.8904 17.4456C82.5692 17.4456 74.3652 26.3806 74.3652 37.3013C74.3652 48.3638 82.7016 57.157 92.8904 57.157C98.845 57.157 104.138 54.1786 107.578 49.3565L101.888 44.9599Z" fill="#002855"/>
<path d="M138.145 37.7261V56.8727H130.735V39.428C130.735 35.4568 129.279 33.1876 125.442 33.1876C121.34 33.1876 119.09 35.7405 119.09 40.8463V56.8727H111.68V14.1829H119.09V30.4929C121.207 27.3727 123.986 25.6708 127.956 25.6708C134.307 25.6708 138.145 30.2093 138.145 37.7261Z" fill="#002855"/>
<path d="M170.565 26.3813V56.874H163.155V52.761C161.17 55.5976 158.259 57.5831 154.289 57.5831C146.879 57.5831 141.322 51.0591 141.322 41.6985C141.322 32.338 147.012 25.814 154.289 25.814C158.259 25.814 161.303 27.7995 163.287 30.7779V26.5231H170.565V26.3813ZM163.155 41.6985C163.155 36.7346 159.979 33.3308 155.877 33.3308C151.775 33.3308 148.732 36.7346 148.732 41.6985C148.732 46.8043 151.775 50.0663 155.877 50.0663C159.979 50.0663 163.155 46.6625 163.155 41.6985Z" fill="#002855"/>
<path d="M290.714 26.3813V56.874H283.303V52.761C281.319 55.5976 278.408 57.5831 274.438 57.5831C267.028 57.5831 261.47 51.0591 261.47 41.6985C261.47 32.338 267.16 25.814 274.438 25.814C278.54 25.814 281.451 27.7995 283.436 30.7779V26.5231H290.714V26.3813ZM283.303 41.6985C283.303 36.7346 280.128 33.3308 276.026 33.3308C271.924 33.3308 268.88 36.7346 268.88 41.6985C268.88 46.8043 271.924 50.0663 276.026 50.0663C280.26 50.0663 283.303 46.6625 283.303 41.6985Z" fill="#002855"/>
<path d="M253.796 26.3789L248.9 48.0784L244.004 26.3789H235.138L230.242 48.2202L225.346 26.3789H218.068L225.875 56.8716H234.344L239.637 36.5904L244.798 56.8716H253.399L261.206 26.3789H253.796Z" fill="#002855"/>
<path d="M182.341 31.6272V26.2378H174.931V56.7305H182.341V43.1152C182.341 35.882 186.443 33.7546 191.074 33.7546H193.721V26.2378H191.074C187.104 26.3796 184.061 27.7979 182.341 31.6272Z" fill="#002855"/>
<path d="M216.877 54.8871L215.289 48.6468V48.505C212.908 49.3559 211.055 50.065 209.335 50.065C206.424 50.065 204.836 48.2213 204.836 44.5338V33.755H215.951L213.966 26.2382H204.836V20.7069V18.1541L197.426 20.1396V26.38V33.8968V45.1011C197.426 53.8944 202.454 57.5819 208.144 57.5819C209.599 57.5819 210.923 57.2982 212.246 57.0145C214.231 56.4472 215.554 55.8799 216.877 54.8871Z" fill="#002855"/>
<path d="M323 26.3789L304.475 70.7706H296.536L304.078 52.9005L293.095 26.3789H300.902L307.915 44.2491L315.061 26.3789H323Z" fill="#002855"/>
<path d="M111.813 76.4448C111.813 73.0409 114.195 70.488 117.371 70.488C119.885 70.488 122.002 72.19 122.531 74.601H120.149C119.62 73.4664 118.561 72.7573 117.238 72.7573C115.253 72.7573 113.93 74.3174 113.93 76.4448C113.93 78.5722 115.253 80.1323 117.238 80.1323C118.561 80.1323 119.62 79.4231 120.149 78.2885H122.531C121.87 80.6996 119.885 82.4015 117.371 82.4015C114.062 82.4015 111.813 79.8486 111.813 76.4448Z" fill="#002855"/>
<path d="M132.72 78.0044H131.529V82.2592H129.28V70.7712H133.911C136.161 70.7712 137.616 72.1895 137.616 74.6006C137.616 76.4443 136.69 77.5789 135.234 78.0044L138.278 82.401H135.631L132.72 78.0044ZM131.529 76.0188H133.779C134.97 76.0188 135.499 75.4515 135.499 74.4587C135.499 73.4659 134.97 72.8986 133.779 72.8986H131.529V76.0188Z" fill="#002855"/>
<path d="M147.012 72.8994V75.1686H151.643V77.4378H147.012V79.9907H152.04V82.2599H144.762V70.6301H152.04V72.8994H147.012Z" fill="#002855"/>
<path d="M168.183 76.4443C168.183 79.7063 165.801 82.2592 162.625 82.2592H158.788V70.7713H162.625C165.801 70.6294 168.183 73.1823 168.183 76.4443ZM165.933 76.4443C165.933 74.3169 164.61 72.8987 162.625 72.8987H160.905V79.99H162.625C164.61 79.99 165.933 78.5717 165.933 76.4443Z" fill="#002855"/>
<path d="M176.651 70.6301H174.402V82.1181H176.651V70.6301Z" fill="#002855"/>
<path d="M191.604 72.8994H188.428V82.2599H186.311V72.8994H183.135V70.6301H191.604V72.8994Z" fill="#002855"/>
<path d="M216.746 70.6301V77.5796C216.746 80.8416 214.893 82.4017 212.247 82.4017C209.732 82.4017 207.748 80.8416 207.748 77.5796V70.6301H209.997V77.4378C209.997 79.4234 210.923 80.1325 212.247 80.1325C213.57 80.1325 214.496 79.4234 214.496 77.4378V70.6301H216.746Z" fill="#002855"/>
<path d="M233.153 70.6301V82.2599H230.506L225.875 74.1758L226.007 77.4378V82.2599H223.89V70.6301H226.404L231.036 78.7143L230.903 75.4522V70.6301H233.153Z" fill="#002855"/>
<path d="M242.547 70.6301H240.297V82.1181H242.547V70.6301Z" fill="#002855"/>
<path d="M260.676 76.4448C260.676 79.8486 258.294 82.4015 255.119 82.4015C251.943 82.4015 249.561 79.8486 249.561 76.4448C249.561 73.0409 251.943 70.488 255.119 70.488C258.162 70.488 260.676 73.0409 260.676 76.4448ZM251.678 76.4448C251.678 78.5722 253.134 80.1323 255.119 80.1323C257.103 80.1323 258.559 78.5722 258.559 76.4448C258.559 74.3174 257.103 72.7573 255.119 72.7573C253.001 72.7573 251.678 74.3174 251.678 76.4448Z" fill="#002855"/>
<path d="M276.289 70.6301V82.2599H273.775L269.144 74.1758L269.276 77.4378V82.2599H267.027V70.6301H269.673L274.305 78.7143L274.172 75.4522V70.6301H276.289Z" fill="#002855"/>
</svg>
