<svg xmlns="http://www.w3.org/2000/svg" fill="none" viewBox="0 0 169 34">
    <g clip-path="url(#main-logo)">
        <path fill="#FFFFFF" d="M169 .5H0v33h169V.5Z"></path>
        <path fill="#000" d="M9.652 9.209h4.076v12.25h5.898v3.33H9.652V9.209ZM27.218 9.209v15.58h-4.075V9.209h4.075ZM29.837 9.209h4.504l4.097 8.303 4.031-8.303h4.355L38.329 25.47 29.835 9.21h.002ZM49.205 9.209h10.168v3.329h-6.177v2.624h5.728v3.33h-5.728v2.967h6.2v3.33H49.208V9.209h-.003ZM68.334 21.652c1.222 0 1.995-.405 1.995-1.216 0-.747-.6-1.047-1.201-1.303L66.49 17.98c-1.802-.83-3.261-1.878-3.261-4.204 0-2.945 2.487-4.822 5.64-4.822 1.867 0 3.583.79 4.334 1.492v4.076c-1.246-1.195-2.895-2.154-4.504-2.154-.923 0-1.588.34-1.588 1.067 0 .449.258.746.794.982l2.382 1.003c2.552 1.088 3.882 2.242 3.882 4.59 0 3.18-2.596 5.037-5.921 5.037-2.08 0-3.862-.746-4.934-1.516V19.52c1.394 1.024 3.152 2.134 5.019 2.134v-.002ZM85.093 12.538v12.25h-4.076v-12.25h-4.656v-3.33h13.385v3.33H85.09h.003ZM96.955 24.789h-4.076V9.209h5.169c3.709 0 6.285 1.941 6.285 5.143 0 1.9-.923 3.329-2.467 4.163l4.16 6.274h-4.697l-3.54-5.42h-.837v5.42h.003Zm0-8.6h1.072c1.35 0 2.166-.727 2.166-1.838 0-1.13-.815-1.857-2.166-1.857h-1.072v3.694ZM123.401 16.999c0 4.44-3.604 8.047-8.108 8.047-4.503 0-8.107-3.607-8.107-8.047s3.604-8.047 8.107-8.047c4.504 0 8.108 3.607 8.108 8.047Zm-12.14 0c0 2.54 1.802 4.289 4.032 4.289s4.032-1.75 4.032-4.29c0-2.539-1.802-4.288-4.032-4.288s-4.032 1.75-4.032 4.289ZM137.366 9.209h3.967V25.45l-10.531-8.773v8.111h-3.967V8.547l10.531 8.793V9.209ZM159.333 22.016c-1.309 1.75-3.689 3.032-6.692 3.032-4.483 0-8.087-3.542-8.087-7.983 0-4.44 3.454-8.11 8.687-8.11 2.447 0 4.311.874 5.234 1.536v4.653c-1.266-1.3-3.218-2.431-5.234-2.431-2.766 0-4.612 1.749-4.612 4.352 0 2.412 1.759 4.29 4.226 4.29 1.309 0 1.91-.257 2.467-.534v-1.773h-3.261l.943-3.33h6.329v6.298ZM162.176 9.296c1.011 0 1.856.787 1.856 1.872a1.84 1.84 0 0 1-1.856 1.873 1.846 1.846 0 0 1-1.864-1.873c0-1.085.843-1.872 1.864-1.872Zm0 3.445c.854 0 1.547-.657 1.547-1.575 0-.918-.693-1.575-1.547-1.575-.853 0-1.554.657-1.554 1.575 0 .918.693 1.575 1.554 1.575Zm-.299-1.278v.665h-.484v-1.96h.773c.423 0 .773.228.773.646 0 .29-.203.49-.412.56l.668.751h-.598l-.58-.664h-.14v.002Zm.573-.638c0-.157-.114-.247-.299-.247h-.271v.49h.271c.185 0 .299-.095.299-.246v.003Z"></path>
    </g>
    <defs>
        <clipPath id="main-logo">
            <path fill="#fff" d="M0 .5h169v33H0z"></path>
        </clipPath>
    </defs>
</svg>