<svg width="19" height="9" viewBox="0 0 19 9" fill="none" xmlns="http://www.w3.org/2000/svg">
<path d="M4.24468 9C3.06129 9 2.058 8.56372 1.2348 7.69114C0.411599 6.81857 0 5.75507 0 4.50064C0 3.24636 0.411599 2.18271 1.2348 1.30971C2.058 0.436571 3.06129 0 4.24468 0C4.71591 0 5.168 0.0887139 5.60096 0.266143C6.03391 0.443714 6.42456 0.695643 6.77289 1.02193L8.31836 2.466L7.40111 3.32636L5.96115 1.97807C5.72493 1.76264 5.45906 1.59336 5.16355 1.47021C4.86818 1.34721 4.56168 1.28571 4.24407 1.28571C3.40686 1.28571 2.69234 1.59964 2.10051 2.2275C1.50868 2.85521 1.21277 3.61314 1.21277 4.50129C1.21277 5.38943 1.50868 6.147 2.10051 6.774C2.69234 7.40086 3.40686 7.71429 4.24407 7.71429C4.56168 7.71429 4.86818 7.65279 5.16355 7.52979C5.45906 7.40664 5.72493 7.23736 5.96115 7.02193L12.2271 1.02193C12.5703 0.690072 12.9592 0.436785 13.3938 0.262071C13.8285 0.0873567 14.2823 0 14.7553 0C15.9387 0 16.942 0.436286 17.7652 1.30886C18.5884 2.18143 19 3.24493 19 4.49936C19 5.75364 18.5884 6.81729 17.7652 7.69029C16.942 8.56343 15.9387 9 14.7553 9C14.2826 9 13.8315 8.90986 13.4019 8.72957C12.9721 8.54943 12.5806 8.29893 12.2271 7.97807L10.6972 6.534L11.5989 5.66529L13.0389 7.02193C13.2751 7.24393 13.5409 7.41486 13.8364 7.53471C14.1318 7.65443 14.4383 7.71429 14.7559 7.71429C15.5931 7.71429 16.3077 7.40036 16.8995 6.7725C17.4913 6.14479 17.7872 5.38686 17.7872 4.49871C17.7872 3.61057 17.4913 2.853 16.8995 2.226C16.3077 1.59914 15.5931 1.28571 14.7559 1.28571C14.4383 1.28571 14.1318 1.34721 13.8364 1.47021C13.5409 1.59336 13.2751 1.76264 13.0389 1.97807L6.77289 7.97807C6.42968 8.30993 6.04079 8.56321 5.60621 8.73793C5.1715 8.91264 4.71766 9 4.24468 9Z" fill="#1F1F1F"/>
</svg>
