<svg width="15" height="12" viewBox="0 0 15 12" fill="none" xmlns="http://www.w3.org/2000/svg">
<path d="M0.682337 6.57114C0.461576 6.16302 0.292663 5.7483 0.175598 5.32697C0.0585326 4.90564 0 4.48409 0 4.06232C0 2.92165 0.383804 1.95946 1.15141 1.17574C1.91891 0.391914 2.8612 0 3.97826 0C4.65054 0 5.29332 0.160939 5.90658 0.482817C6.51984 0.804695 7.05098 1.26065 7.5 1.85069C7.94902 1.26065 8.48016 0.804695 9.09342 0.482817C9.70668 0.160939 10.3495 0 11.0217 0C12.1388 0 13.0811 0.391914 13.8486 1.17574C14.6162 1.95946 15 2.92165 15 4.06232C15 4.47555 14.9415 4.89071 14.8244 5.30782C14.7073 5.72482 14.5384 6.14382 14.3177 6.56481C14.224 6.41353 14.1132 6.27817 13.9852 6.15875C13.8574 6.03932 13.714 5.94242 13.5551 5.86806C13.7073 5.55306 13.8231 5.24678 13.9026 4.94921C13.982 4.65164 14.0217 4.35601 14.0217 4.06232C14.0217 3.2008 13.7327 2.47485 13.1545 1.88448C12.5764 1.29412 11.8654 0.998932 11.0217 0.998932C10.2459 0.998932 9.60266 1.22563 9.09212 1.67904C8.58169 2.13233 8.05098 2.70477 7.5 3.39637C6.94902 2.698 6.41832 2.12384 5.90788 1.67388C5.39734 1.22391 4.75413 0.998932 3.97826 0.998932C3.13457 0.998932 2.42364 1.29412 1.84549 1.88448C1.26734 2.47485 0.978261 3.2008 0.978261 4.06232C0.978261 4.36455 1.01799 4.66551 1.09745 4.96519C1.1769 5.26487 1.2906 5.56799 1.43853 5.87455C1.27973 5.95302 1.13761 6.05097 1.01217 6.1684C0.886739 6.28583 0.776793 6.42008 0.682337 6.57114ZM0 12V11.188C0 10.7381 0.227337 10.3725 0.682011 10.0912C1.13668 9.80984 1.72674 9.66916 2.45217 9.66916C2.585 9.66916 2.71245 9.67299 2.83451 9.68065C2.95658 9.68831 3.07321 9.70323 3.1844 9.72543C3.06147 9.92189 2.96821 10.1309 2.90462 10.3524C2.84114 10.5741 2.8094 10.8102 2.8094 11.0607V12H0ZM3.91304 12V11.0843C3.91304 10.4482 4.24451 9.93809 4.90745 9.55395C5.57038 9.16969 6.43516 8.97757 7.50179 8.97757C8.57831 8.97757 9.445 9.16969 10.1018 9.55395C10.7586 9.93809 11.087 10.4482 11.087 11.0843V12H3.91304ZM12.1906 12V11.0607C12.1906 10.8102 12.1616 10.5741 12.1035 10.3524C12.0454 10.1309 11.9582 9.92189 11.842 9.72543C11.9532 9.70323 12.0685 9.68831 12.188 9.68065C12.3076 9.67299 12.4297 9.66916 12.5543 9.66916C13.288 9.66916 13.8791 9.80984 14.3274 10.0912C14.7758 10.3725 15 10.7381 15 11.188V12H12.1906ZM7.49919 9.9765C6.82158 9.9765 6.23929 10.0683 5.75234 10.2519C5.26527 10.4355 4.995 10.6617 4.94152 10.9306V11.0011H10.0686V10.9306C10.0084 10.6617 9.73745 10.4355 9.25582 10.2519C8.77429 10.0683 8.18875 9.9765 7.49919 9.9765ZM2.45201 9.02235C2.14505 9.02235 1.88228 8.91075 1.6637 8.68754C1.445 8.46434 1.33565 8.19601 1.33565 7.88257C1.33565 7.56502 1.445 7.29675 1.6637 7.07776C1.88228 6.85878 2.14505 6.74928 2.45201 6.74928C2.76299 6.74928 3.02674 6.85878 3.24326 7.07776C3.45989 7.29675 3.56821 7.56502 3.56821 7.88257C3.56821 8.19601 3.45989 8.46434 3.24326 8.68754C3.02674 8.91075 2.76299 9.02235 2.45201 9.02235ZM12.5543 9.02235C12.25 9.02235 11.9879 8.91075 11.768 8.68754C11.5481 8.46434 11.4382 8.19601 11.4382 7.88257C11.4382 7.56502 11.5481 7.29675 11.768 7.07776C11.9879 6.85878 12.2504 6.74928 12.5555 6.74928C12.8699 6.74928 13.1344 6.85878 13.3489 7.07776C13.5633 7.29675 13.6705 7.56502 13.6705 7.88257C13.6705 8.19601 13.5636 8.46434 13.3497 8.68754C13.1358 8.91075 12.8707 9.02235 12.5543 9.02235ZM7.50228 8.4781C7.0325 8.4781 6.6325 8.31 6.30228 7.97381C5.97207 7.63772 5.80696 7.22955 5.80696 6.74928C5.80696 6.25936 5.97152 5.84874 6.30065 5.51743C6.62989 5.18601 7.02967 5.0203 7.5 5.0203C7.97967 5.0203 8.38179 5.18579 8.70636 5.51677C9.03082 5.84763 9.19304 6.2577 9.19304 6.74695C9.19304 7.22655 9.03103 7.635 8.70701 7.97231C8.38288 8.3095 7.9813 8.4781 7.50228 8.4781ZM7.5 6.01923C7.30272 6.01923 7.13424 6.08921 6.99457 6.22917C6.85489 6.36902 6.78505 6.54239 6.78505 6.74928C6.78505 6.95073 6.85489 7.12277 6.99457 7.2654C7.13424 7.40791 7.30375 7.47917 7.5031 7.47917C7.70255 7.47917 7.87103 7.40791 8.00853 7.2654C8.14614 7.12277 8.21495 6.94962 8.21495 6.74595C8.21495 6.54239 8.14641 6.37035 8.00935 6.22984C7.87228 6.08943 7.7025 6.01923 7.5 6.01923Z" fill="#1F1F1F"/>
</svg>
