<svg width="11" height="16" viewBox="0 0 11 16" fill="none" xmlns="http://www.w3.org/2000/svg">
<path d="M0.523438 5.0749C0.523438 3.86817 1.00281 2.71086 1.8561 1.85757C2.70939 1.00428 3.8667 0.524902 5.07344 0.524902C6.28017 0.524902 7.43748 1.00428 8.29077 1.85757C9.14406 2.71086 9.62344 3.86817 9.62344 5.0749C9.62344 9.2749 5.42344 9.2749 5.42344 12.0749C5.42344 12.3966 5.36007 12.7152 5.23694 13.0125C5.11382 13.3097 4.93335 13.5798 4.70585 13.8073C4.47835 14.0348 4.20826 14.2153 3.91101 14.3384C3.61376 14.4615 3.29518 14.5249 2.97344 14.5249C2.6517 14.5249 2.33311 14.4615 2.03586 14.3384C1.73862 14.2153 1.46853 14.0348 1.24103 13.8073C1.01352 13.5798 0.833057 13.3097 0.709933 13.0125C0.586809 12.7152 0.523437 12.3966 0.523438 12.0749" stroke="black" stroke-width="1.05" stroke-linecap="round" stroke-linejoin="round"/>
<path d="M6.82812 5.0752C6.82812 4.61107 6.64375 4.16595 6.31556 3.83776C5.98737 3.50957 5.54225 3.3252 5.07812 3.3252C4.614 3.3252 4.16888 3.50957 3.84069 3.83776C3.5125 4.16595 3.32812 4.61107 3.32812 5.0752V5.7752C3.69943 5.7752 4.05552 5.9227 4.31807 6.18525C4.58063 6.4478 4.72812 6.80389 4.72812 7.1752C4.72812 7.5465 4.58063 7.90259 4.31807 8.16514C4.05552 8.4277 3.69943 8.5752 3.32812 8.5752" stroke="black" stroke-width="1.05" stroke-linecap="round" stroke-linejoin="round"/>
</svg>
