<svg width="13" height="13" viewBox="0 0 13 13" fill="none" xmlns="http://www.w3.org/2000/svg">
<path d="M5.83594 6.50065C5.83594 6.67746 5.90618 6.84703 6.0312 6.97205C6.15622 7.09708 6.32579 7.16731 6.5026 7.16731C6.67941 7.16731 6.84898 7.09708 6.97401 6.97205C7.09903 6.84703 7.16927 6.67746 7.16927 6.50065C7.16927 6.32384 7.09903 6.15427 6.97401 6.02925C6.84898 5.90422 6.67941 5.83398 6.5026 5.83398C6.32579 5.83398 6.15622 5.90422 6.0312 6.02925C5.90618 6.15427 5.83594 6.32384 5.83594 6.50065Z" stroke="black" stroke-width="0.999998" stroke-linecap="round" stroke-linejoin="round"/>
<path d="M6.49739 3.16748C5.83812 3.16748 5.19366 3.36298 4.64549 3.72925C4.09733 4.09552 3.67009 4.61611 3.4178 5.2252C3.16551 5.83428 3.0995 6.5045 3.22811 7.15111C3.35673 7.79771 3.6742 8.39165 4.14037 8.85782C4.60655 9.324 5.20049 9.64147 5.84709 9.77008C6.49369 9.8987 7.16391 9.83269 7.773 9.5804C8.38208 9.32811 8.90268 8.90086 9.26895 8.3527C9.63522 7.80454 9.83071 7.16008 9.83071 6.50081" stroke="black" stroke-width="0.999998" stroke-linecap="round" stroke-linejoin="round"/>
<path d="M7.16892 0.537411C5.93297 0.398753 4.68447 0.647597 3.59613 1.24952C2.50779 1.85145 1.63339 2.77671 1.09389 3.89731C0.554398 5.01791 0.376466 6.27847 0.58471 7.50462C0.792953 8.73077 1.37708 9.8619 2.25629 10.7416C3.1355 11.6212 4.26634 12.2059 5.49239 12.4148C6.71843 12.6236 7.97908 12.4463 9.09995 11.9074C10.2208 11.3685 11.1465 10.4945 11.749 9.4065C12.3515 8.31846 12.6009 7.07009 12.4629 5.83407" stroke="black" stroke-width="0.999998" stroke-linecap="round" stroke-linejoin="round"/>
<path d="M8.5 2.50048V4.50048H10.5L12.5 2.50048H10.5V0.500488L8.5 2.50048Z" stroke="black" stroke-width="0.999998" stroke-linecap="round" stroke-linejoin="round"/>
<path d="M8.5 4.50049L6.5 6.50048" stroke="black" stroke-width="0.999998" stroke-linecap="round" stroke-linejoin="round"/>
</svg>
