<svg width="15" height="9" viewBox="0 0 15 9" fill="none" xmlns="http://www.w3.org/2000/svg">
<path d="M0.81478 9L0 8.16837L3.96336 4.12207C4.37964 3.7022 4.88134 3.49102 5.46846 3.48852C6.05571 3.48602 6.55747 3.69721 6.97375 4.12207L7.86275 5.02966C8.05704 5.22802 8.28644 5.32595 8.55094 5.32345C8.81558 5.32095 9.04504 5.22302 9.23933 5.02966L13.0139 1.18382H10.7483V0H15V4.34068H13.8404V2.02769L10.0539 5.87353C9.63777 6.29339 9.13484 6.50464 8.54515 6.50727C7.95545 6.50977 7.45497 6.30108 7.04372 5.88122L6.1354 4.9539C5.94897 4.76356 5.72272 4.66971 5.45667 4.67234C5.19049 4.67484 4.96425 4.76869 4.77794 4.9539L0.81478 9Z" fill="#1F1F1F"/>
</svg>
