<svg width="15" height="12" viewBox="0 0 15 12" fill="none" xmlns="http://www.w3.org/2000/svg">
<path d="M6.39746 8.677C6.67785 8.961 7.03895 9.09587 7.48078 9.0816C7.92247 9.0672 8.24661 8.90567 8.45318 8.597L12.7373 2.3078L6.51588 6.6338C6.20629 6.84313 6.03906 7.16493 6.01419 7.5992C5.98945 8.0336 6.11721 8.39287 6.39746 8.677ZM7.49973 0C8.25075 0 8.95441 0.0997338 9.6107 0.2992C10.2671 0.498667 10.901 0.800466 11.5123 1.2046L10.3994 1.9338C9.95003 1.6918 9.48426 1.509 9.00204 1.3854C8.51969 1.2618 8.01892 1.2 7.49973 1.2C5.74979 1.2 4.25971 1.82333 3.02949 3.07C1.79928 4.31667 1.18417 5.82667 1.18417 7.6C1.18417 8.16 1.25982 8.71333 1.41113 9.26C1.56244 9.80667 1.77625 10.32 2.05256 10.8H12.9469C13.2495 10.2933 13.4699 9.76667 13.6081 9.22C13.7462 8.67333 13.8153 8.10667 13.8153 7.52C13.8153 7.04 13.7569 6.55413 13.64 6.0624C13.5231 5.57053 13.3426 5.1036 13.0987 4.6616L13.8182 3.5338C14.208 4.181 14.5003 4.82847 14.6951 5.4762C14.8899 6.12393 14.9913 6.797 14.9995 7.4954C15.0075 8.21953 14.927 8.90387 14.7581 9.5484C14.589 10.1931 14.3345 10.8236 13.9945 11.44C13.8902 11.6133 13.7434 11.75 13.5542 11.85C13.3648 11.95 13.1624 12 12.9469 12H2.05256C1.84204 12 1.64343 11.9487 1.45672 11.8462C1.27002 11.7435 1.11943 11.5979 1.00496 11.4092C0.703396 10.8759 0.46051 10.2943 0.276306 9.6646C0.0921019 9.03487 0 8.34667 0 7.6C0 6.55493 0.195651 5.57247 0.586952 4.6526C0.978254 3.73273 1.51238 2.92707 2.18933 2.2356C2.86641 1.54413 3.66237 0.998667 4.5772 0.5992C5.49217 0.199734 6.46634 0 7.49973 0Z" fill="#1F1F1F"/>
</svg>
