<?xml version="1.0" encoding="UTF-8"?>
<svg id="Layer_1" xmlns="http://www.w3.org/2000/svg" version="1.1" viewBox="0 0 427.8 103.8">
  <!-- Generator: Adobe Illustrator 30.1.0, SVG Export Plug-In . SVG Version: 2.1.1 Build 136)  -->
  <defs>
    <style>
      .st0 {
        fill: #f99c24;
      }

      .st1 {
        fill: #fff;
      }
    </style>
  </defs>
  <g>
    <path class="st1" d="M151.1,65.5h-17.3l-3.8,8.4h-2.3l13.7-29.8h2.2l13.7,29.8h-2.3l-3.9-8.4ZM150.3,63.7l-7.8-17.2-7.8,17.2h15.6Z"/>
    <path class="st1" d="M157.6,74.1h-2.9l-3.8-8.4h-17l-3.8,8.4h-2.9l13.9-30.3h2.5l14,30.3ZM155.1,73.6h1.8l-13.5-29.3h-1.8l-13.5,29.3h1.8l3.8-8.4h17.6l3.8,8.4ZM150.7,63.9h-16.4l8.2-18,8.2,18ZM135,63.4h14.8l-7.4-16.3-7.4,16.3Z"/>
  </g>
  <g>
    <path class="st1" d="M181.8,51.7v19.8c0,3.7-.9,6.4-2.7,8.2-1.8,1.8-4.5,2.6-8.1,2.6s-4-.3-5.8-.9-3.3-1.5-4.4-2.6l1.1-1.6c1.1,1,2.4,1.8,4,2.4s3.2.9,5,.9c3,0,5.1-.7,6.6-2.1,1.4-1.4,2.1-3.6,2.1-6.5v-3.9c-.9,1.6-2.2,2.9-3.8,3.7-1.6.9-3.4,1.3-5.4,1.3s-4-.5-5.6-1.4c-1.7-.9-3-2.2-4-3.9-1-1.6-1.4-3.5-1.4-5.6s.5-3.9,1.4-5.6c1-1.6,2.3-2.9,4-3.8,1.7-.9,3.6-1.4,5.6-1.4s3.9.5,5.5,1.4,2.9,2.2,3.8,3.8v-5h2.1v.2ZM175.2,70c1.4-.8,2.5-1.8,3.3-3.1.8-1.3,1.2-2.9,1.2-4.6s-.4-3.3-1.2-4.6-1.9-2.4-3.3-3.1c-1.4-.8-3-1.1-4.7-1.1s-3.3.4-4.7,1.1c-1.4.8-2.5,1.8-3.2,3.1-.8,1.3-1.2,2.9-1.2,4.6s.4,3.3,1.2,4.6c.8,1.3,1.9,2.4,3.2,3.1,1.4.8,2.9,1.1,4.7,1.1,1.8,0,3.3-.3,4.7-1.1Z"/>
    <path class="st1" d="M171,82.6c-2.1,0-4-.3-5.9-.9-1.8-.6-3.4-1.5-4.5-2.7h-.1c0,0,1.4-2.1,1.4-2.1l.2.2c1.1,1,2.4,1.8,3.9,2.3,1.5.6,3.2.8,4.9.8,2.9,0,5-.7,6.4-2s2.1-3.5,2.1-6.4v-2.9c-.9,1.3-2,2.3-3.4,3.1-1.6.9-3.5,1.3-5.6,1.3s-4-.5-5.8-1.4c-1.7-.9-3.1-2.3-4.1-3.9-1-1.7-1.5-3.6-1.5-5.7s.5-4,1.5-5.7,2.4-3,4.1-3.9c1.7-.9,3.7-1.4,5.8-1.4s4,.5,5.7,1.4c1.4.8,2.6,1.8,3.4,3.1v-4.4h2.5v20.1c0,3.7-.9,6.5-2.8,8.3-1.8,1.9-4.6,2.8-8.2,2.8ZM161.1,78.8c1.1,1,2.4,1.8,4.1,2.4,1.8.6,3.7.9,5.7.9,3.5,0,6.2-.9,7.9-2.6s2.6-4.4,2.6-8v-19.6h-1.4v5.8l-.5-.9c-.9-1.6-2.1-2.8-3.7-3.7-1.6-.9-3.4-1.3-5.4-1.3s-3.9.4-5.5,1.3c-1.6.9-2.9,2.1-3.9,3.7-.9,1.6-1.4,3.4-1.4,5.4s.5,3.8,1.4,5.4,2.2,2.9,3.9,3.8c1.6.9,3.5,1.4,5.5,1.4s3.8-.4,5.3-1.3c1.6-.9,2.8-2.1,3.7-3.6l.5-.8v4.7c0,3-.7,5.3-2.2,6.7-1.5,1.4-3.7,2.2-6.7,2.2s-3.5-.3-5.1-.9c-1.5-.5-2.8-1.3-3.9-2.2l-.9,1.2ZM170.6,71.4c-1.8,0-3.4-.4-4.8-1.2-1.4-.8-2.5-1.9-3.3-3.2-.8-1.4-1.2-3-1.2-4.7s.4-3.4,1.2-4.7,1.9-2.4,3.3-3.2c1.4-.8,3-1.2,4.8-1.2s3.4.4,4.8,1.2c1.4.8,2.6,1.9,3.4,3.2.8,1.4,1.2,3,1.2,4.7s-.4,3.4-1.2,4.7c-.8,1.4-1.9,2.5-3.4,3.2h0c-1.5.8-3.1,1.2-4.8,1.2ZM170.6,53.7c-1.7,0-3.2.4-4.5,1.1-1.3.7-2.4,1.7-3.1,3-.8,1.3-1.1,2.8-1.1,4.5s.4,3.2,1.1,4.5,1.8,2.3,3.1,3.1c1.3.7,2.9,1.1,4.5,1.1s3.2-.4,4.6-1.1h0c1.3-.7,2.4-1.8,3.2-3.1.8-1.3,1.1-2.8,1.1-4.5s-.4-3.2-1.1-4.5c-.8-1.3-1.8-2.3-3.2-3-1.4-.8-3-1.1-4.6-1.1Z"/>
  </g>
  <g>
    <path class="st1" d="M190.6,45.8c-.3-.3-.5-.7-.5-1.2s.2-.9.5-1.2.8-.5,1.2-.5.9.2,1.2.5.5.7.5,1.2-.2.9-.5,1.2-.8.5-1.2.5-.9-.2-1.2-.5ZM190.8,51.7h2.1v22.2h-2.1v-22.2Z"/>
    <path class="st1" d="M193.1,74.1h-2.6v-22.7h2.6v22.7ZM191,73.6h1.6v-21.7h-1.6v21.7ZM191.8,46.5c-.5,0-1-.2-1.4-.6h0c-.4-.4-.6-.8-.6-1.4s.2-1,.6-1.4c.4-.4.9-.6,1.4-.6s1,.2,1.4.6c.4.4.6.8.6,1.4s-.2,1-.6,1.4c-.3.4-.8.6-1.4.6ZM191.8,43.1c-.4,0-.8,0-1.1.4-.3.3-.4.6-.4,1.1s.1.8.4,1h0c.3.3.6.4,1.1.4s.8,0,1.1-.4c.3-.3.4-.6.4-1.1s-.1-.8-.4-1c-.3-.3-.6-.4-1.1-.4Z"/>
  </g>
  <g>
    <path class="st1" d="M201.9,42.3h2.1v31.6h-2.1v-31.6Z"/>
    <path class="st1" d="M204.3,74.1h-2.6v-32h2.6v32ZM202.1,73.6h1.6v-31h-1.6v31Z"/>
  </g>
  <g>
    <path class="st1" d="M231.7,63.3h-19.1c.1,1.7.5,3.3,1.3,4.6s1.9,2.4,3.3,3.1c1.4.7,3,1.1,4.7,1.1s2.8-.3,4-.8,2.3-1.3,3.1-2.3l1.2,1.4c-1,1.2-2.2,2.1-3.6,2.7-1.5.6-3,.9-4.7.9s-4.2-.5-5.9-1.4c-1.7-1-3.1-2.3-4.1-4s-1.5-3.6-1.5-5.8.5-4.1,1.4-5.8,2.2-3.1,3.8-4c1.6-1,3.4-1.4,5.4-1.4s3.8.5,5.4,1.4c1.6,1,2.9,2.3,3.8,4,.9,1.7,1.4,3.6,1.4,5.8v.5ZM217,54.4c-1.2.7-2.2,1.7-3,2.9-.8,1.3-1.2,2.7-1.3,4.3h17c-.1-1.6-.5-3-1.3-4.3-.8-1.2-1.8-2.2-3-2.9s-2.7-1.1-4.2-1.1-3,.4-4.2,1.1Z"/>
    <path class="st1" d="M222,74.3c-2.2,0-4.3-.5-6-1.5-1.8-1-3.2-2.4-4.2-4.1s-1.5-3.7-1.5-6,.5-4.2,1.4-5.9,2.3-3.1,3.9-4.1c1.6-1,3.5-1.5,5.6-1.5s3.9.5,5.6,1.5c1.6,1,2.9,2.3,3.9,4.1.9,1.7,1.4,3.7,1.4,5.9v.8h-19.2c.1,1.6.5,3,1.3,4.2.8,1.3,1.9,2.3,3.2,3,1.4.7,2.9,1.1,4.6,1.1s2.7-.3,3.9-.8,2.2-1.3,3-2.2l.2-.2,1.6,1.8v.2c-1.1,1.2-2.3,2.1-3.8,2.8-1.5.6-3.2.9-4.9.9ZM221.2,51.8c-2,0-3.7.5-5.3,1.4s-2.8,2.3-3.7,3.9c-.9,1.7-1.4,3.6-1.4,5.7s.5,4,1.4,5.7c1,1.7,2.3,3,4,3.9s3.6,1.4,5.8,1.4,3.2-.3,4.6-.9c1.3-.6,2.5-1.4,3.4-2.4l-.9-1c-.8.9-1.8,1.7-3,2.2-1.3.5-2.6.8-4.1.8s-3.4-.4-4.9-1.1c-1.4-.8-2.6-1.8-3.4-3.2-.8-1.4-1.3-3-1.4-4.7v-.3h19.1v-.4c0-2.1-.5-4-1.4-5.7s-2.1-3-3.7-3.9c-1.4-1-3.1-1.4-5.1-1.4ZM230,61.9h-17.6v-.3c.1-1.6.6-3.1,1.3-4.4.8-1.3,1.8-2.3,3.1-3h0c1.3-.7,2.7-1.1,4.3-1.1s3.1.4,4.3,1.1c1.3.7,2.3,1.7,3.1,3s1.2,2.7,1.3,4.4l.2.3ZM213,61.4h16.5c-.1-1.4-.5-2.7-1.2-3.9s-1.7-2.2-2.9-2.9-2.6-1-4.1-1-2.9.3-4.1,1h0c-1.2.7-2.2,1.6-2.9,2.8-.8,1.2-1.2,2.6-1.3,4Z"/>
  </g>
  <g>
    <path class="st1" d="M267.8,44.1l-13.3,29.8h-2.2l-13.3-29.8h2.4l12,27,12-27s2.4,0,2.4,0Z"/>
    <path class="st1" d="M254.7,74.1h-2.6c0,0-13.4-30.2-13.4-30.2h3c0,0,11.8,26.6,11.8,26.6l11.9-26.6h2.8l-13.5,30.2ZM252.5,73.6h1.8l13.1-29.3h-1.7l-12.2,27.3-12.2-27.3h-1.8l13,29.3Z"/>
  </g>
  <g>
    <path class="st1" d="M289,63.3h-19.1c.1,1.7.5,3.3,1.3,4.6s1.9,2.4,3.3,3.1,3,1.1,4.7,1.1,2.8-.3,4-.8,2.3-1.3,3.1-2.3l1.2,1.4c-1,1.2-2.2,2.1-3.6,2.7-1.5.6-3,.9-4.7.9s-4.2-.5-5.9-1.4c-1.7-1-3.1-2.3-4.1-4s-1.5-3.6-1.5-5.8.5-4.1,1.4-5.8,2.2-3.1,3.8-4c1.6-1,3.4-1.4,5.4-1.4s3.8.5,5.4,1.4c1.6,1,2.9,2.3,3.8,4s1.4,3.6,1.4,5.8v.5ZM274.2,54.4c-1.2.7-2.2,1.7-3,2.9-.8,1.3-1.2,2.7-1.3,4.3h17c-.1-1.6-.5-3-1.3-4.3-.8-1.2-1.8-2.2-3-2.9s-2.7-1.1-4.2-1.1c-1.5,0-2.9.4-4.2,1.1Z"/>
    <path class="st1" d="M279.2,74.3c-2.2,0-4.3-.5-6-1.5-1.8-1-3.2-2.4-4.2-4.1s-1.5-3.7-1.5-6,.5-4.2,1.4-5.9,2.3-3.1,3.9-4.1,3.5-1.5,5.6-1.5,3.9.5,5.6,1.5c1.6,1,2.9,2.3,3.9,4.1.9,1.7,1.4,3.7,1.4,5.9v.8h-19.2c.1,1.6.5,3,1.3,4.2.8,1.3,1.9,2.3,3.2,3,1.4.7,2.9,1.1,4.6,1.1s2.7-.3,3.9-.8c1.2-.5,2.2-1.3,3-2.2l.2-.2,1.6,1.8v.2c-1.1,1.2-2.3,2.1-3.8,2.8-1.5.6-3.1.9-4.9.9ZM278.4,51.8c-2,0-3.7.5-5.3,1.4-1.6.9-2.8,2.3-3.7,3.9-.9,1.7-1.4,3.6-1.4,5.7s.5,4,1.4,5.7c1,1.7,2.3,3,4,3.9s3.6,1.4,5.8,1.4,3.2-.3,4.6-.9c1.3-.6,2.5-1.4,3.4-2.4l-.9-1c-.8.9-1.8,1.7-3,2.2-1.3.5-2.6.8-4.1.8s-3.4-.4-4.9-1.1c-1.4-.8-2.6-1.8-3.4-3.2-.8-1.4-1.3-3-1.4-4.7v-.3h19.1v-.4c0-2.1-.5-4-1.4-5.7s-2.1-3-3.7-3.9c-1.3-1-3.1-1.4-5.1-1.4ZM287.2,61.9h-17.6v-.3c.1-1.6.6-3.1,1.3-4.4.8-1.3,1.8-2.3,3.1-3h0c1.3-.7,2.7-1.1,4.3-1.1s3.1.4,4.3,1.1c1.3.7,2.3,1.7,3.1,3,.8,1.3,1.2,2.7,1.3,4.4l.2.3ZM270.2,61.4h16.5c-.1-1.4-.5-2.7-1.2-3.9s-1.7-2.2-2.9-2.9c-1.2-.7-2.6-1-4.1-1s-2.9.3-4.1,1h0c-1.2.7-2.2,1.6-2.9,2.8-.8,1.2-1.2,2.6-1.3,4Z"/>
  </g>
  <g>
    <path class="st1" d="M295.6,42.3h2.1v31.6h-2.1v-31.6Z"/>
    <path class="st1" d="M298,74.1h-2.6v-32h2.6v32ZM295.9,73.6h1.6v-31h-1.6v31Z"/>
  </g>
  <g>
    <path class="st1" d="M309.7,72.6c-1.7-1-3-2.3-4-4s-1.4-3.7-1.4-5.8.5-4.1,1.4-5.8c1-1.7,2.3-3.1,4-4,1.7-1,3.6-1.4,5.7-1.4s4,.5,5.7,1.4c1.7,1,3,2.3,4,4s1.4,3.7,1.4,5.8-.5,4.1-1.4,5.8c-1,1.7-2.3,3.1-4,4-1.7,1-3.6,1.4-5.7,1.4-2.1,0-4-.4-5.7-1.4ZM320,71c1.3-.8,2.4-1.9,3.2-3.3.8-1.4,1.2-3,1.2-4.9s-.4-3.4-1.2-4.9c-.8-1.4-1.8-2.5-3.2-3.3-1.3-.8-2.9-1.2-4.6-1.2s-3.2.4-4.6,1.2c-1.3.8-2.4,1.9-3.2,3.3-.8,1.4-1.2,3-1.2,4.9s.4,3.4,1.2,4.9c.8,1.4,1.8,2.5,3.2,3.3,1.3.8,2.9,1.2,4.6,1.2,1.7,0,3.2-.4,4.6-1.2Z"/>
    <path class="st1" d="M315.4,74.3c-2.1,0-4.1-.5-5.8-1.5h0c-1.7-1-3.1-2.4-4.1-4.1s-1.5-3.7-1.5-5.9.5-4.2,1.5-5.9,2.4-3.1,4.1-4.1,3.7-1.5,5.8-1.5,4.1.5,5.8,1.5c1.7,1,3.1,2.4,4.1,4.1,1,1.7,1.5,3.7,1.5,5.9s-.5,4.2-1.5,5.9c-1,1.7-2.4,3.1-4.1,4.1-1.7,1-3.7,1.5-5.8,1.5ZM315.4,51.8c-2,0-3.9.5-5.6,1.4-1.6.9-2.9,2.3-3.9,3.9-.9,1.7-1.4,3.6-1.4,5.7s.5,4,1.4,5.7,2.2,3,3.9,3.9h0c1.6.9,3.5,1.4,5.6,1.4s3.9-.5,5.6-1.4c1.6-.9,2.9-2.3,3.9-3.9.9-1.7,1.4-3.6,1.4-5.7s-.5-4-1.4-5.7-2.2-3-3.9-3.9c-1.7-1-3.6-1.4-5.6-1.4ZM315.4,72.4c-1.7,0-3.3-.4-4.7-1.2-1.4-.8-2.5-2-3.3-3.4s-1.2-3.1-1.2-5,.4-3.5,1.2-5c.8-1.5,1.9-2.6,3.3-3.4,1.4-.8,3-1.2,4.7-1.2s3.3.4,4.7,1.2c1.4.8,2.5,2,3.3,3.4.8,1.5,1.2,3.1,1.2,5s-.4,3.5-1.2,5c-.8,1.5-1.9,2.6-3.3,3.4h0c-1.4.8-3,1.2-4.7,1.2ZM315.4,53.7c-1.6,0-3.1.4-4.4,1.2s-2.3,1.9-3.1,3.2c-.8,1.4-1.1,3-1.1,4.7s.4,3.4,1.1,4.7c.8,1.4,1.8,2.5,3.1,3.2,1.3.8,2.8,1.2,4.4,1.2s3.1-.4,4.4-1.2h0c1.3-.8,2.3-1.9,3.1-3.2.8-1.4,1.1-3,1.1-4.7s-.4-3.4-1.1-4.7c-.8-1.4-1.8-2.5-3.1-3.2-1.3-.8-2.8-1.2-4.4-1.2Z"/>
  </g>
  <g>
    <path class="st1" d="M336.1,72.6c-1.7-1-3-2.3-4-4s-1.4-3.7-1.4-5.8.5-4.1,1.4-5.8c1-1.7,2.3-3,4-4,1.7-.9,3.6-1.4,5.8-1.4s3.4.3,4.9,1,2.6,1.7,3.6,3l-1.6,1.1c-.8-1.1-1.8-1.9-3-2.5s-2.5-.8-3.9-.8-3.3.4-4.7,1.2c-1.4.8-2.5,1.9-3.2,3.3-.8,1.4-1.2,3-1.2,4.9s.4,3.5,1.2,4.9c.8,1.4,1.9,2.5,3.2,3.3,1.4.8,2.9,1.2,4.7,1.2s2.7-.3,3.9-.8c1.2-.6,2.2-1.4,3-2.5l1.6,1.1c-.9,1.3-2.1,2.3-3.6,3s-3.1,1-4.9,1c-2.2.1-4.1-.4-5.8-1.4Z"/>
    <path class="st1" d="M341.9,74.3c-2.2,0-4.2-.5-5.9-1.5-1.7-1-3.1-2.4-4.1-4.1s-1.5-3.7-1.5-5.9.5-4.2,1.5-6c1-1.7,2.4-3.1,4.1-4.1s3.7-1.5,5.9-1.5,3.5.4,5,1.1c1.5.7,2.7,1.8,3.7,3.1v.2c.1,0-1.9,1.4-1.9,1.4v-.2c-.9-1.1-1.8-1.9-3-2.4-1.1-.5-2.4-.8-3.8-.8s-3.2.4-4.5,1.1c-1.3.8-2.4,1.8-3.1,3.2-.8,1.4-1.1,3-1.1,4.8s.4,3.4,1.1,4.8c.8,1.4,1.8,2.4,3.1,3.2,1.3.8,2.9,1.1,4.5,1.1s2.6-.3,3.8-.8c1.1-.5,2.1-1.3,2.9-2.4v-.2c.1,0,2.1,1.4,2.1,1.4v.2c-1,1.4-2.3,2.4-3.8,3.1-1.5.9-3.2,1.2-5,1.2ZM341.9,51.8c-2.1,0-4,.5-5.7,1.4s-3,2.2-3.9,3.9-1.4,3.6-1.4,5.7.5,4,1.4,5.7,2.2,3,3.9,3.9h0c1.7.9,3.6,1.4,5.7,1.4s3.3-.3,4.8-1c1.3-.6,2.5-1.6,3.3-2.8l-1.2-.9c-.8,1-1.8,1.8-2.9,2.4-1.2.6-2.6.9-4,.9s-3.4-.4-4.8-1.2c-1.4-.8-2.5-1.9-3.3-3.4-.8-1.4-1.2-3.1-1.2-5s.4-3.6,1.2-5c.8-1.5,1.9-2.6,3.3-3.4,1.4-.8,3-1.2,4.8-1.2s2.8.3,4,.9c1.1.5,2.1,1.3,2.9,2.4l1.2-.9c-.9-1.2-2-2.1-3.3-2.8-1.5-.7-3.1-1-4.8-1Z"/>
  </g>
  <g>
    <path class="st1" d="M356.5,45.8c-.3-.3-.5-.7-.5-1.2s.2-.9.5-1.2.8-.5,1.2-.5.9.2,1.2.5c.3.3.5.7.5,1.2s-.2.9-.5,1.2-.8.5-1.2.5-.8-.2-1.2-.5ZM356.7,51.7h2.1v22.2h-2.1v-22.2Z"/>
    <path class="st1" d="M359.1,74.1h-2.6v-22.7h2.6v22.7ZM357,73.6h1.6v-21.7h-1.6v21.7ZM357.8,46.5c-.5,0-1-.2-1.4-.6-.4-.4-.6-.8-.6-1.4s.2-1,.6-1.4.9-.6,1.4-.6,1,.2,1.4.6c.4.4.6.8.6,1.4s-.2,1-.6,1.4c-.4.4-.9.6-1.4.6ZM357.8,43.1c-.4,0-.8,0-1.1.4-.3.3-.4.6-.4,1.1s.1.8.4,1h0c.3.3.6.4,1.1.4s.8,0,1.1-.4c.3-.3.4-.6.4-1.1s-.1-.8-.4-1c-.4-.3-.7-.4-1.1-.4Z"/>
  </g>
  <g>
    <path class="st1" d="M378.8,72.5c-.5.5-1.2.9-2,1.2-.8.3-1.7.4-2.5.4-1.9,0-3.4-.5-4.5-1.6-1-1.1-1.6-2.5-1.6-4.4v-14.6h-4.1v-1.8h4.1v-4.9h2.1v4.9h7.1v1.8h-7.1v14.3c0,1.4.3,2.5,1,3.3s1.7,1.1,3.1,1.1,2.5-.4,3.4-1.2l1,1.5Z"/>
    <path class="st1" d="M374.3,74.3c-2,0-3.6-.6-4.6-1.7-1.1-1.1-1.6-2.7-1.6-4.6v-14.2h-4.1v-2.3h4.1v-4.9h2.6v4.9h7.1v2.3h-7.1v14c0,1.4.3,2.4,1,3.1.6.7,1.6,1,2.9,1s2.4-.4,3.3-1.2l.2-.2,1.2,1.9h-.1c-.6.6-1.3,1-2.1,1.3-1,.5-1.9.6-2.8.6ZM364.4,53.3h4.1v14.7c0,1.8.5,3.3,1.5,4.3s2.4,1.5,4.3,1.5,1.7,0,2.5-.4c.7-.2,1.3-.6,1.8-1l-.6-1.1c-.9.7-2.1,1.1-3.4,1.1s-2.5-.4-3.3-1.2c-.7-.8-1.1-2-1.1-3.5v-14.4h7.1v-1.3h-7.1v-4.9h-1.6v4.9h-4.1v1.3h0Z"/>
  </g>
  <g>
    <path class="st1" d="M402.2,51.7l-11.4,25.2c-.9,2-1.8,3.3-3,4.2-1.1.8-2.4,1.2-4,1.2s-2-.2-2.9-.5-1.7-.8-2.3-1.5l1.1-1.6c1.1,1.2,2.5,1.7,4.1,1.7s2-.3,2.8-.9,1.5-1.6,2.1-3.1l1.2-2.7-10-22.1h2.3l8.9,19.9,8.9-19.9h2.2Z"/>
    <path class="st1" d="M383.8,82.6c-1,0-2-.2-3-.5-.9-.4-1.7-.9-2.4-1.6h-.1c0,0,1.3-2.1,1.3-2.1l.2.2c1.1,1.1,2.4,1.7,3.9,1.7s1.9-.3,2.6-.8c.7-.6,1.4-1.6,2.1-3l1.1-2.6-10.1-22.4h2.8l8.7,19.5,8.7-19.5h2.7l-.2.4-11.1,25.1c-.9,2-1.9,3.4-3,4.3-1.2.8-2.6,1.3-4.2,1.3ZM379,80.3c.6.6,1.3,1,2,1.3.9.3,1.8.5,2.8.5,1.5,0,2.8-.4,3.8-1.2,1.1-.8,2-2.2,2.9-4.1l11.2-24.9h-1.6l-9.1,20.2-9-20.2h-1.7l9.9,21.9-1.2,2.8c-.7,1.5-1.4,2.5-2.2,3.2-.8.6-1.8.9-2.9.9-1.6,0-2.9-.5-4.1-1.6l-.8,1.2Z"/>
  </g>
  <path class="st0" d="M116.5,29h13.2l-22.7,50h-10.4l-19.1-42,10.9-5.6,13.6,31.5,14.5-33.9Z"/>
  <path class="st1" d="M67.5,32.1l-1.4-3.1h-10.4l-4.1,8.7c5.3-1.9,10.6-3.8,15.9-5.6Z"/>
  <path class="st1" d="M54.3,44.4c-8.7,4.3-17.1,8.9-24.4,15.5-1.8,1.7-5.4,5.5-5.9,7.9,0,0-4.6,10.8,8.4,11.1h1.1c-.5-.4-4.6-5-.7-11.9,3.6-6.4,11.3-10.7,11.3-10.7l-10.6,22.7h12l4.5-10.3h22.1l4.5,10.3h12.9l-17.7-37.6c23.4-12,48.2-20.5,73.5-27.3-.5-.1-1,0-1.5.1-7.4,1.8-14.8,3.5-22.2,5.5-17.6,4.8-34.9,10.5-51.7,17.6M67.9,59h-14l7-16.1,4.6,10.6h0l2.4,5.5h0Z"/>
  <metadata>
    <sfw xmlns="http://ns.adobe.com/SaveForWeb/1.0/">
      <slices/>
      <sliceSourceBounds x="23.21" y="21.2" width="379.09" height="68.54" bottomLeftOrigin="true"/>
    </sfw>
  </metadata>
</svg>